{
  "accessors": [
    {
      "bufferView": 2,
      "componentType": 5126,
      "count": 432,
      "max": [
        1.241117000579834,
        0.6336690187454224,
        0.22349600493907928
      ],
      "min": [
        -1.2722580432891846,
        -0.6264790296554565,
        -0.22349600493907928
      ],
      "type": "VEC3"
    },
    {
      "bufferView": 2,
      "byteOffset": 5184,
      "componentType": 5126,
      "count": 432,
      "max": [
        0.9999504685401917,
        0.9999503493309021,
        1.0
      ],
      "min": [
        -0.9999504685401917,
        -0.9999503493309021,
        -1.0
      ],
      "type": "VEC3"
    },
    {
      "bufferView": 3,
      "componentType": 5126,
      "count": 432,
      "max": [
        0.9999536275863647,
        0.9977443218231201,
        0.9806930422782898,
        1.0
      ],
      "min": [
        -0.9999531507492065,
        -0.9978564381599426,
        -0.9810346961021423,
        1.0
      ],
      "type": "VEC4"
    },
    {
      "bufferView": 1,
      "componentType": 5126,
      "count": 432,
      "max": [
        0.988493025302887,
        0.9871399998664856
      ],
      "min": [
        0.03136099874973297,
        0.001908999984152615
      ],
      "type": "VEC2"
    },
    {
      "bufferView": 0,
      "componentType": 5125,
      "count": 1080,
      "type": "SCALAR"
    },
    {
      "bufferView": 2,
      "byteOffset": 10368,
      "componentType": 5126,
      "count": 449,
      "max": [
        0.7859899997711182,
        1.0206010341644287,
        0.05000000074505806
      ],
      "min": [
        -1.5320520401000977,
        -1.0206010341644287,
        -0.05000000074505806
      ],
      "type": "VEC3"
    },
    {
      "bufferView": 2,
      "byteOffset": 15756,
      "componentType": 5126,
      "count": 449,
      "max": [
        0.9967687726020813,
        0.9999597668647766,
        1.0
      ],
      "min": [
        -0.9956812262535095,
        -0.9999597668647766,
        -1.0
      ],
      "type": "VEC3"
    },
    {
      "bufferView": 3,
      "byteOffset": 6912,
      "componentType": 5126,
      "count": 449,
      "max": [
        0.7906718254089355,
        0.9999955296516418,
        1.0,
        1.0
      ],
      "min": [
        -0.8202459812164307,
        -0.9999996423721313,
        -0.9999288320541382,
        1.0
      ],
      "type": "VEC4"
    },
    {
      "bufferView": 1,
      "byteOffset": 3456,
      "componentType": 5126,
      "count": 449,
      "max": [
        0.9278370141983032,
        0.9182019829750061
      ],
      "min": [
        0.046337999403476715,
        0.2659449875354767
      ],
      "type": "VEC2"
    },
    {
      "bufferView": 0,
      "byteOffset": 4320,
      "componentType": 5125,
      "count": 1908,
      "type": "SCALAR"
    },
    {
      "bufferView": 2,
      "byteOffset": 21144,
      "componentType": 5126,
      "count": 454,
      "max": [
        0.7438139915466309,
        0.05000000074505806,
        0.9830960035324097
      ],
      "min": [
        -1.5312459468841553,
        -0.05000000074505806,
        -0.9830960035324097
      ],
      "type": "VEC3"
    },
    {
      "bufferView": 2,
      "byteOffset": 26592,
      "componentType": 5126,
      "count": 454,
      "max": [
        0.9975033402442932,
        0.9999998807907104,
        0.9999474883079529
      ],
      "min": [
        -0.9966968894004822,
        -0.9999998807907104,
        -0.9999474883079529
      ],
      "type": "VEC3"
    },
    {
      "bufferView": 3,
      "byteOffset": 14096,
      "componentType": 5126,
      "count": 454,
      "max": [
        0.9035012722015381,
        0.9999005198478699,
        0.9998959302902222,
        1.0
      ],
      "min": [
        -0.9194191098213196,
        -1.0,
        -0.9998998045921326,
        1.0
      ],
      "type": "VEC4"
    },
    {
      "bufferView": 1,
      "byteOffset": 7048,
      "componentType": 5126,
      "count": 454,
      "max": [
        0.9155380129814148,
        0.8526909947395325
      ],
      "min": [
        0.1520799994468689,
        0.1540450006723404
      ],
      "type": "VEC2"
    },
    {
      "bufferView": 0,
      "byteOffset": 11952,
      "componentType": 5125,
      "count": 1908,
      "type": "SCALAR"
    },
    {
      "bufferView": 2,
      "byteOffset": 32040,
      "componentType": 5126,
      "count": 2320,
      "max": [
        0.5440030097961426,
        0.628180980682373,
        0.628180980682373
      ],
      "min": [
        -0.5440040230751038,
        -0.628180980682373,
        -0.628180980682373
      ],
      "type": "VEC3"
    },
    {
      "bufferView": 2,
      "byteOffset": 59880,
      "componentType": 5126,
      "count": 2320,
      "max": [
        1.0,
        0.9807853698730469,
        0.9807853698730469
      ],
      "min": [
        -1.0,
        -0.9807853698730469,
        -0.9807853698730469
      ],
      "type": "VEC3"
    },
    {
      "bufferView": 3,
      "byteOffset": 21360,
      "componentType": 5126,
      "count": 2320,
      "max": [
        1.0,
        0.9808973073959351,
        0.9808973670005798,
        1.0
      ],
      "min": [
        -1.0,
        -0.9808947443962097,
        -0.9808973073959351,
        1.0
      ],
      "type": "VEC4"
    },
    {
      "bufferView": 1,
      "byteOffset": 10680,
      "componentType": 5126,
      "count": 2320,
      "max": [
        0.9776279926300049,
        0.9812260270118713
      ],
      "min": [
        0.04002600163221359,
        0.001908999984152615
      ],
      "type": "VEC2"
    },
    {
      "bufferView": 0,
      "byteOffset": 19584,
      "componentType": 5125,
      "count": 4608,
      "type": "SCALAR"
    },
    {
      "bufferView": 2,
      "byteOffset": 87720,
      "componentType": 5126,
      "count": 2620,
      "max": [
        1.5201640129089355,
        1.0517560243606567,
        1.0245699882507324
      ],
      "min": [
        -1.155959963798523,
        -1.074550986289978,
        -1.0028350353240967
      ],
      "type": "VEC3"
    },
    {
      "bufferView": 2,
      "byteOffset": 119160,
      "componentType": 5126,
      "count": 2620,
      "max": [
        0.9999996423721313,
        1.0,
        1.0
      ],
      "min": [
        -1.0,
        -1.0,
        -1.0
      ],
      "type": "VEC3"
    },
    {
      "bufferView": 3,
      "byteOffset": 58480,
      "componentType": 5126,
      "count": 2620,
      "max": [
        1.0,
        1.0,
        1.0,
        1.0
      ],
      "min": [
        -0.9999997019767761,
        -1.0,
        -1.0,
        1.0
      ],
      "type": "VEC4"
    },
    {
      "bufferView": 1,
      "byteOffset": 29240,
      "componentType": 5126,
      "count": 2620,
      "max": [
        0.9969310164451599,
        0.9963549971580505
      ],
      "min": [
        0.011126999743282795,
        0.001908999984152615
      ],
      "type": "VEC2"
    },
    {
      "bufferView": 0,
      "byteOffset": 38016,
      "componentType": 5125,
      "count": 4608,
      "type": "SCALAR"
    },
    {
      "bufferView": 2,
      "byteOffset": 150600,
      "componentType": 5126,
      "count": 7438,
      "max": [
        3.119626045227051,
        1.1594159603118896,
        0.7082110047340393
      ],
      "min": [
        -3.534298896789551,
        -1.085819959640503,
        -2.2397749423980713
      ],
      "type": "VEC3"
    },
    {
      "bufferView": 2,
      "byteOffset": 239856,
      "componentType": 5126,
      "count": 7438,
      "max": [
        0.9992053508758545,
        0.9972994923591614,
        0.9996952414512634
      ],
      "min": [
        -0.9995742440223694,
        -0.9973001480102539,
        -0.9996997714042664
      ],
      "type": "VEC3"
    },
    {
      "bufferView": 3,
      "byteOffset": 100400,
      "componentType": 5126,
      "count": 7438,
      "max": [
        0.9954487085342407,
        0.9998959302902222,
        0.9940405488014221,
        1.0
      ],
      "min": [
        -0.9919328093528748,
        -0.9999170303344727,
        -0.9995235204696655,
        1.0
      ],
      "type": "VEC4"
    },
    {
      "bufferView": 1,
      "byteOffset": 50200,
      "componentType": 5126,
      "count": 7438,
      "max": [
        0.9805880188941956,
        0.9724500179290771
      ],
      "min": [
        0.001908999984152615,
        0.014399000443518162
      ],
      "type": "VEC2"
    },
    {
      "bufferView": 0,
      "byteOffset": 56448,
      "componentType": 5125,
      "count": 33828,
      "type": "SCALAR"
    },
    {
      "bufferView": 2,
      "byteOffset": 329112,
      "componentType": 5126,
      "count": 8247,
      "max": [
        1.4055349826812744,
        0.6650609970092773,
        0.8993330001831055
      ],
      "min": [
        -1.4206290245056152,
        -0.6595849990844727,
        -1.157222032546997
      ],
      "type": "VEC3"
    },
    {
      "bufferView": 2,
      "byteOffset": 428076,
      "componentType": 5126,
      "count": 8247,
      "max": [
        1.0,
        1.0,
        1.0
      ],
      "min": [
        -1.0,
        -1.0,
        -1.0
      ],
      "type": "VEC3"
    },
    {
      "bufferView": 3,
      "byteOffset": 219408,
      "componentType": 5126,
      "count": 8247,
      "max": [
        1.0,
        1.0,
        1.0,
        1.0
      ],
      "min": [
        -1.0,
        -1.0,
        -1.0,
        1.0
      ],
      "type": "VEC4"
    },
    {
      "bufferView": 1,
      "byteOffset": 109704,
      "componentType": 5126,
      "count": 8247,
      "max": [
        0.9980909824371338,
        0.9961810111999512
      ],
      "min": [
        0.001908999984152615,
        0.001908999984152615
      ],
      "type": "VEC2"
    },
    {
      "bufferView": 0,
      "byteOffset": 191760,
      "componentType": 5125,
      "count": 21480,
      "type": "SCALAR"
    },
    {
      "bufferView": 2,
      "byteOffset": 527040,
      "componentType": 5126,
      "count": 14397,
      "max": [
        3.5986039638519287,
        1.52908194065094,
        0.33928900957107544
      ],
      "min": [
        -3.2143590450286865,
        -1.5520789623260498,
        -1.0855050086975098
      ],
      "type": "VEC3"
    },
    {
      "bufferView": 2,
      "byteOffset": 699804,
      "componentType": 5126,
      "count": 14397,
      "max": [
        1.0,
        1.0,
        1.0
      ],
      "min": [
        -1.0,
        -1.0,
        -1.0
      ],
      "type": "VEC3"
    },
    {
      "bufferView": 3,
      "byteOffset": 351360,
      "componentType": 5126,
      "count": 14397,
      "max": [
        1.0,
        1.0,
        1.0,
        1.0
      ],
      "min": [
        -1.0,
        -1.0,
        -1.0,
        1.0
      ],
      "type": "VEC4"
    },
    {
      "bufferView": 1,
      "byteOffset": 175680,
      "componentType": 5126,
      "count": 14397,
      "max": [
        0.997655987739563,
        0.9974949955940247
      ],
      "min": [
        0.001908999984152615,
        0.001908999984152615
      ],
      "type": "VEC2"
    },
    {
      "bufferView": 0,
      "byteOffset": 277680,
      "componentType": 5125,
      "count": 45774,
      "type": "SCALAR"
    },
    {
      "bufferView": 2,
      "byteOffset": 872568,
      "componentType": 5126,
      "count": 6341,
      "max": [
        4.307500839233398,
        0.6400989890098572,
        1.083678960800171
      ],
      "min": [
        -4.056891918182373,
        -0.679328978061676,
        -1.8391209840774536
      ],
      "type": "VEC3"
    },
    {
      "bufferView": 2,
      "byteOffset": 948660,
      "componentType": 5126,
      "count": 6341,
      "max": [
        1.0,
        1.0,
        1.0
      ],
      "min": [
        -1.0,
        -1.0,
        -1.0
      ],
      "type": "VEC3"
    },
    {
      "bufferView": 3,
      "byteOffset": 581712,
      "componentType": 5126,
      "count": 6341,
      "max": [
        1.0,
        1.0,
        1.0,
        1.0
      ],
      "min": [
        -1.0,
        -1.0,
        -1.0,
        -1.0
      ],
      "type": "VEC4"
    },
    {
      "bufferView": 1,
      "byteOffset": 290856,
      "componentType": 5126,
      "count": 6341,
      "max": [
        0.998013973236084,
        0.995386004447937
      ],
      "min": [
        0.001908999984152615,
        0.001908999984152615
      ],
      "type": "VEC2"
    },
    {
      "bufferView": 0,
      "byteOffset": 460776,
      "componentType": 5125,
      "count": 25062,
      "type": "SCALAR"
    }
  ],
  "asset": {
    "extras": {
      "author": "hirairmak (https://sketchfab.com/hirairmak)",
      "license": "CC-BY-4.0 (http://creativecommons.org/licenses/by/4.0/)",
      "source": "https://sketchfab.com/3d-models/submarine-23f76a8f22ba4254ade6e876cc03188a",
      "title": "Submarine"
    },
    "generator": "Sketchfab-12.50.0",
    "version": "2.0"
  },
  "bufferViews": [
    {
      "buffer": 0,
      "byteLength": 561024,
      "name": "floatBufferViews",
      "target": 34963
    },
    {
      "buffer": 0,
      "byteLength": 341584,
      "byteOffset": 561024,
      "byteStride": 8,
      "name": "floatBufferViews",
      "target": 34962
    },
    {
      "buffer": 0,
      "byteLength": 1024752,
      "byteOffset": 902608,
      "byteStride": 12,
      "name": "floatBufferViews",
      "target": 34962
    },
    {
      "buffer": 0,
      "byteLength": 683168,
      "byteOffset": 1927360,
      "byteStride": 16,
      "name": "floatBufferViews",
      "target": 34962
    }
  ],
  "buffers": [
    {
      "byteLength": 2610528,
      "uri": "scene.bin"
    }
  ],
  "images": [
    {
      "uri": "textures/material_baseColor.jpeg"
    },
    {
      "uri": "textures/material_metallicRoughness.png"
    },
    {
      "uri": "textures/material_normal.png"
    },
    {
      "uri": "textures/material_1_baseColor.jpeg"
    },
    {
      "uri": "textures/material_1_metallicRoughness.png"
    },
    {
      "uri": "textures/material_1_normal.png"
    },
    {
      "uri": "textures/material_2_baseColor.jpeg"
    },
    {
      "uri": "textures/material_2_metallicRoughness.png"
    },
    {
      "uri": "textures/material_2_normal.png"
    },
    {
      "uri": "textures/Kablo_baseColor.jpeg"
    },
    {
      "uri": "textures/Kablo_metallicRoughness.png"
    },
    {
      "uri": "textures/Kablo_normal.png"
    },
    {
      "uri": "textures/material_4_baseColor.png"
    },
    {
      "uri": "textures/material_4_metallicRoughness.png"
    },
    {
      "uri": "textures/material_4_normal.png"
    }
  ],
  "materials": [
    {
      "doubleSided": true,
      "name": "material",
      "normalTexture": {
        "index": 2
      },
      "occlusionTexture": {
        "index": 1
      },
      "pbrMetallicRoughness": {
        "baseColorTexture": {
          "index": 0
        },
        "metallicRoughnessTexture": {
          "index": 1
        }
      }
    },
    {
      "doubleSided": true,
      "name": "material_1",
      "normalTexture": {
        "index": 5
      },
      "occlusionTexture": {
        "index": 4
      },
      "pbrMetallicRoughness": {
        "baseColorTexture": {
          "index": 3
        },
        "metallicRoughnessTexture": {
          "index": 4
        }
      }
    },
    {
      "doubleSided": true,
      "name": "material_2",
      "normalTexture": {
        "index": 8
      },
      "occlusionTexture": {
        "index": 7
      },
      "pbrMetallicRoughness": {
        "baseColorTexture": {
          "index": 6
        },
        "metallicRoughnessTexture": {
          "index": 7
        }
      }
    },
    {
      "doubleSided": true,
      "name": "Kablo",
      "normalTexture": {
        "index": 11
      },
      "occlusionTexture": {
        "index": 10
      },
      "pbrMetallicRoughness": {
        "baseColorTexture": {
          "index": 9
        },
        "metallicRoughnessTexture": {
          "index": 10
        }
      }
    },
    {
      "alphaMode": "BLEND",
      "doubleSided": true,
      "name": "material_4",
      "normalTexture": {
        "index": 14
      },
      "occlusionTexture": {
        "index": 13
      },
      "pbrMetallicRoughness": {
        "baseColorTexture": {
          "index": 12
        },
        "metallicRoughnessTexture": {
          "index": 13
        }
      }
    }
  ],
  "meshes": [
    {
      "name": "defaultMaterial",
      "primitives": [
        {
          "attributes": {
            "NORMAL": 1,
            "POSITION": 0,
            "TANGENT": 2,
            "TEXCOORD_0": 3
          },
          "indices": 4,
          "material": 4,
          "mode": 4
        }
      ]
    },
    {
      "name": "defaultMaterial",
      "primitives": [
        {
          "attributes": {
            "NORMAL": 6,
            "POSITION": 5,
            "TANGENT": 7,
            "TEXCOORD_0": 8
          },
          "indices": 9,
          "material": 3,
          "mode": 4
        }
      ]
    },
    {
      "name": "defaultMaterial",
      "primitives": [
        {
          "attributes": {
            "NORMAL": 11,
            "POSITION": 10,
            "TANGENT": 12,
            "TEXCOORD_0": 13
          },
          "indices": 14,
          "material": 3,
          "mode": 4
        }
      ]
    },
    {
      "name": "defaultMaterial",
      "primitives": [
        {
          "attributes": {
            "NORMAL": 16,
            "POSITION": 15,
            "TANGENT": 17,
            "TEXCOORD_0": 18
          },
          "indices": 19,
          "material": 2,
          "mode": 4
        }
      ]
    },
    {
      "name": "defaultMaterial",
      "primitives": [
        {
          "attributes": {
            "NORMAL": 21,
            "POSITION": 20,
            "TANGENT": 22,
            "TEXCOORD_0": 23
          },
          "indices": 24,
          "material": 2,
          "mode": 4
        }
      ]
    },
    {
      "name": "defaultMaterial",
      "primitives": [
        {
          "attributes": {
            "NORMAL": 26,
            "POSITION": 25,
            "TANGENT": 27,
            "TEXCOORD_0": 28
          },
          "indices": 29,
          "material": 3,
          "mode": 4
        }
      ]
    },
    {
      "name": "defaultMaterial",
      "primitives": [
        {
          "attributes": {
            "NORMAL": 31,
            "POSITION": 30,
            "TANGENT": 32,
            "TEXCOORD_0": 33
          },
          "indices": 34,
          "material": 2,
          "mode": 4
        }
      ]
    },
    {
      "name": "defaultMaterial",
      "primitives": [
        {
          "attributes": {
            "NORMAL": 36,
            "POSITION": 35,
            "TANGENT": 37,
            "TEXCOORD_0": 38
          },
          "indices": 39,
          "material": 1,
          "mode": 4
        }
      ]
    },
    {
      "name": "defaultMaterial",
      "primitives": [
        {
          "attributes": {
            "NORMAL": 41,
            "POSITION": 40,
            "TANGENT": 42,
            "TEXCOORD_0": 43
          },
          "indices": 44,
          "material": 0,
          "mode": 4
        }
      ]
    }
  ],
  "nodes": [
    {
      "children": [
        1
      ],
      "matrix": [
        1.0,
        0.0,
        0.0,
        0.0,
        0.0,
        2.220446049250313e-16,
        -1.0,
        0.0,
        0.0,
        1.0,
        2.220446049250313e-16,
        0.0,
        0.0,
        0.0,
        0.0,
        1.0
      ],
      "name": "Sketchfab_model"
    },
    {
      "children": [
        2,
        4,
        6,
        8,
        10,
        12,
        14,
        16,
        18
      ],
      "matrix": [
        1.0,
        0.0,
        0.0,
        0.0,
        0.0,
        -4.371139006309477e-08,
        0.999999999999999,
        0.0,
        0.0,
        -0.999999999999999,
        -4.371139006309477e-08,
        0.0,
        0.0,
        0.0,
        0.0,
        1.0
      ],
      "name": "Collada visual scene group"
    },
    {
      "children": [
        3
      ],
      "matrix": [
        100.0,
        0.0,
        0.0,
        0.0,
        0.0,
        -1.6e-05,
        -100.0,
        0.0,
        0.0,
        100.0,
        -1.6e-05,
        0.0,
        2.14597,
        210.536484,
        0.373423,
        1.0
      ],
      "name": "Cylinder.003"
    },
    {
      "mesh": 0,
      "name": "defaultMaterial"
    },
    {
      "children": [
        5
      ],
      "matrix": [
        100.0,
        0.0,
        0.0,
        0.0,
        0.0,
        -1.6e-05,
        -100.0,
        0.0,
        0.0,
        100.0,
        -1.6e-05,
        0.0,
        582.162964,
        103.019188,
        -0.480676,
        1.0
      ],
      "name": "Cylinder.009"
    },
    {
      "mesh": 1,
      "name": "defaultMaterial"
    },
    {
      "children": [
        7
      ],
      "matrix": [
        100.0,
        0.0,
        0.0,
        0.0,
        0.0,
        -1.6e-05,
        -100.0,
        0.0,
        0.0,
        100.0,
        -1.6e-05,
        0.0,
        572.508606,
        103.539536,
        -2.197541,
        1.0
      ],
      "name": "Cylinder.008"
    },
    {
      "mesh": 2,
      "name": "defaultMaterial"
    },
    {
      "children": [
        9
      ],
      "matrix": [
        100.0,
        0.0,
        0.0,
        0.0,
        0.0,
        -1.6e-05,
        -100.0,
        0.0,
        0.0,
        100.0,
        -1.6e-05,
        0.0,
        480.171783,
        102.274178,
        -3.657376,
        1.0
      ],
      "name": "Cylinder.007"
    },
    {
      "mesh": 3,
      "name": "defaultMaterial"
    },
    {
      "children": [
        11
      ],
      "matrix": [
        100.0,
        0.0,
        0.0,
        0.0,
        0.0,
        -1.6e-05,
        -100.0,
        0.0,
        0.0,
        100.0,
        -1.6e-05,
        0.0,
        471.023743,
        102.985672,
        -1.83623,
        1.0
      ],
      "name": "Plane"
    },
    {
      "mesh": 4,
      "name": "defaultMaterial"
    },
    {
      "children": [
        13
      ],
      "matrix": [
        100.0,
        0.0,
        0.0,
        0.0,
        0.0,
        -1.6e-05,
        -100.0,
        0.0,
        0.0,
        100.0,
        -1.6e-05,
        0.0,
        -36.151047,
        144.995956,
        -4.692364,
        1.0
      ],
      "name": "Cylinder.006"
    },
    {
      "mesh": 5,
      "name": "defaultMaterial"
    },
    {
      "children": [
        15
      ],
      "matrix": [
        100.0,
        0.0,
        0.0,
        0.0,
        0.0,
        -1.6e-05,
        -100.0,
        0.0,
        0.0,
        100.0,
        -1.6e-05,
        0.0,
        1.399684,
        268.809296,
        0.086563,
        1.0
      ],
      "name": "Cylinder.002"
    },
    {
      "mesh": 6,
      "name": "defaultMaterial"
    },
    {
      "children": [
        17
      ],
      "matrix": [
        100.0,
        0.0,
        0.0,
        0.0,
        0.0,
        -1.6e-05,
        -100.0,
        0.0,
        0.0,
        100.0,
        -1.6e-05,
        0.0,
        40.086727,
        142.252869,
        -1.149836,
        1.0
      ],
      "name": "Cylinder.001"
    },
    {
      "mesh": 7,
      "name": "defaultMaterial"
    },
    {
      "children": [
        19
      ],
      "matrix": [
        100.0,
        0.0,
        0.0,
        0.0,
        0.0,
        -1.6e-05,
        -100.0,
        0.0,
        0.0,
        100.0,
        -1.6e-05,
        0.0,
        50.967533,
        85.501755,
        -1.96149,
        1.0
      ],
      "name": "Cylinder"
    },
    {
      "mesh": 8,
      "name": "defaultMaterial"
    }
  ],
  "samplers": [
    {
      "magFilter": 9729,
      "minFilter": 9987,
      "wrapS": 10497,
      "wrapT": 10497
    }
  ],
  "scene": 0,
  "scenes": [
    {
      "name": "Sketchfab_Scene",
      "nodes": [
        0
      ]
    }
  ],
  "textures": [
    {
      "sampler": 0,
      "source": 0
    },
    {
      "sampler": 0,
      "source": 1
    },
    {
      "sampler": 0,
      "source": 2
    },
    {
      "sampler": 0,
      "source": 3
    },
    {
      "sampler": 0,
      "source": 4
    },
    {
      "sampler": 0,
      "source": 5
    },
    {
      "sampler": 0,
      "source": 6
    },
    {
      "sampler": 0,
      "source": 7
    },
    {
      "sampler": 0,
      "source": 8
    },
    {
      "sampler": 0,
      "source": 9
    },
    {
      "sampler": 0,
      "source": 10
    },
    {
      "sampler": 0,
      "source": 11
    },
    {
      "sampler": 0,
      "source": 12
    },
    {
      "sampler": 0,
      "source": 13
    },
    {
      "sampler": 0,
      "source": 14
    }
  ]
}
